<svg width="112" height="33" viewBox="0 0 112 33" fill="none" xmlns="http://www.w3.org/2000/svg">
<path d="M99.9219 11.5302C99.9219 11.4402 99.678 11.2254 99.5183 11.0832C99.0945 10.7058 98.5109 10.1919 98.5109 9.28612C98.5109 8.93194 98.7983 8.64453 99.1525 8.64453C99.5067 8.64453 99.7941 8.93194 99.7941 9.28612C99.7941 9.59966 100.012 9.80869 100.369 10.1222C100.741 10.4532 101.205 10.8625 101.205 11.5273C101.173 12.3751 99.9538 12.378 99.9219 11.5273V11.5302ZM97.1987 11.4664C97.5529 11.4664 97.8403 11.179 97.8403 10.8248C97.8403 10.279 97.4716 9.95094 97.2045 9.70998C96.9578 9.48934 96.8794 9.40225 96.8794 9.28612C96.8794 8.93194 96.592 8.64453 96.2378 8.64453C95.8836 8.64453 95.5962 8.93194 95.5962 9.28612C95.5962 9.99739 96.0491 10.4009 96.351 10.668C96.4207 10.729 96.5194 10.819 96.56 10.8712C96.5833 11.2051 96.862 11.4664 97.1987 11.4664ZM97.9361 21.9147C98.2903 21.9147 98.5777 21.6273 98.5777 21.2732V21.2441C98.5777 20.4283 99.2396 19.7664 100.055 19.7664H104.602C105.449 19.7984 105.452 21.0148 104.602 21.0496H102.68C101.832 21.0815 101.829 22.3009 102.68 22.3328H104.602C104.968 22.3328 105.31 22.2312 105.6 22.0512C105.641 22.0338 108.457 19.9726 108.48 19.9522C108.602 19.8332 108.765 19.7664 108.936 19.7693C109.107 19.7693 109.267 19.839 109.386 19.9609C109.505 20.0829 109.572 20.2454 109.569 20.4167C109.569 20.5764 109.508 20.7274 109.401 20.8435C109.401 20.8435 108.53 21.5112 108.524 21.517C106.405 23.2473 105.113 23.7757 102.99 23.7757H96.2378C95.3901 23.8076 95.3872 25.0269 96.2378 25.0588H102.99C105.397 25.0588 106.997 24.4172 109.325 22.5157C109.325 22.5157 110.257 21.8015 110.274 21.7841C110.64 21.4241 110.846 20.9422 110.849 20.4283C110.855 19.9145 110.658 19.4297 110.298 19.0639C109.938 18.6981 109.456 18.492 108.945 18.4891C108.448 18.4832 107.978 18.6661 107.615 19.0058L106.442 19.8651C106.207 19.0697 105.47 18.4891 104.599 18.4891H100.053C98.7403 18.4891 97.64 19.4093 97.3613 20.6374H96.2349C95.3872 20.6693 95.3843 21.8886 96.2349 21.9206H97.9332L97.9361 21.9147ZM96.2378 15.9227C95.3901 15.9546 95.3872 17.1739 96.2378 17.2059H111.363C112.211 17.1739 112.214 15.9546 111.363 15.9227H110.8C110.565 12.4244 108.193 10.3283 104.622 10.1106C105.014 9.48934 104.544 8.63582 103.8 8.64743C103.057 8.63582 102.587 9.49225 102.982 10.1135C101.881 10.0729 101.948 11.4461 102.869 11.4083C103.17 11.3793 103.49 11.3648 103.818 11.3648C108.321 11.3706 109.357 14.0037 109.514 15.9227H98.1219C98.2003 14.8717 98.5051 13.9892 99.0248 13.2953C99.2367 13.0108 99.1787 12.6102 98.8971 12.3983C98.6125 12.1864 98.2119 12.2444 98 12.526C97.3119 13.4434 96.9229 14.5843 96.8358 15.9227H96.2349H96.2378Z" fill="#FBC41B"/>
<path d="M38.1366 7.06293C38.1366 5.43068 37.0027 4.42895 36.0925 3.62045C35.2179 2.84755 34.684 2.33397 34.684 1.57124C34.684 0.706802 33.9823 0 33.1127 0C32.2432 0 31.5415 0.701717 31.5415 1.57124C31.5415 3.78825 32.9653 5.04931 34.0077 5.96968C34.3992 6.31545 34.9942 6.84428 34.9942 7.06293C35.0704 9.14266 38.0553 9.14266 38.1315 7.06293H38.1366Z" fill="#FBC41B"/>
<path d="M28.3333 6.9053C27.5044 6.9053 26.823 6.2646 26.7671 5.44593C26.6705 5.3239 26.4264 5.10016 26.2535 4.9527C25.5162 4.29674 24.4077 3.31027 24.4077 1.57124C24.4077 0.706802 25.1094 0 25.979 0C26.8485 0 27.5502 0.701717 27.5502 1.57124C27.5502 1.85599 27.7383 2.06956 28.3434 2.60856C28.9994 3.19332 29.9045 3.99674 29.9045 5.33407C29.9045 6.1985 29.2028 6.9053 28.3333 6.9053Z" fill="#FBC41B"/>
<path d="M2.22391 18.8614C2.22402 18.9198 2.25563 18.9805 2.31873 19.0434C2.38182 19.1017 2.47864 19.1578 2.6092 19.2115C2.74426 19.2652 2.91529 19.3099 3.12229 19.3455C3.33377 19.3766 3.58572 19.3941 3.87813 19.398C3.74304 19.3263 3.60569 19.2523 3.46609 19.1761C3.33098 19.0954 3.20039 19.0237 3.07431 18.9609C2.94823 18.8937 2.83341 18.84 2.72987 18.7997C2.62632 18.7549 2.53856 18.7326 2.46658 18.7327C2.30464 18.733 2.22375 18.7759 2.22391 18.8614ZM8.20818 11.3397C8.27539 11.2046 8.35614 11.0852 8.45041 10.9816C8.54468 10.8779 8.64573 10.7923 8.75356 10.7246C8.86139 10.6569 8.97151 10.6072 9.08391 10.5755C9.1963 10.5393 9.30198 10.5211 9.40095 10.5209C9.5449 10.5206 9.66643 10.5587 9.76554 10.6349C9.86465 10.7067 9.91434 10.8146 9.91461 10.9585C9.91483 11.071 9.88582 11.1925 9.82759 11.3231C9.57672 11.8634 9.32135 12.4082 9.06149 12.9575C8.80163 13.5023 8.53949 14.0359 8.27509 14.5582C8.01518 15.0805 7.75973 15.5849 7.50875 16.0712C7.25776 16.553 7.01571 17.001 6.78258 17.4154C6.54946 17.8297 6.32974 18.2012 6.12345 18.53C5.92165 18.8588 5.73773 19.1313 5.5717 19.3475C5.96302 19.3198 6.32058 19.2831 6.64438 19.2375C6.96818 19.1919 7.28072 19.1396 7.58201 19.0805C7.88329 19.0214 8.18457 18.9579 8.48583 18.8898C8.79159 18.8173 9.11984 18.7447 9.47058 18.672C9.49305 18.663 9.51778 18.6562 9.54476 18.6516C9.57175 18.6471 9.59648 18.6448 9.61898 18.6447C9.75843 18.6445 9.86875 18.7005 9.94994 18.8128C10.0311 18.9206 10.0718 19.0442 10.0721 19.1837C10.0723 19.2692 9.99148 19.3615 9.82972 19.4608C9.66796 19.5556 9.44547 19.6505 9.16225 19.7455C8.88352 19.8405 8.55306 19.9333 8.17087 20.024C7.79316 20.1102 7.38395 20.1875 6.94323 20.2558C6.5025 20.3197 6.04151 20.37 5.56024 20.4069C5.07899 20.4483 4.59994 20.4695 4.12311 20.4704C3.5698 20.4715 3.09289 20.4342 2.69238 20.3585C2.29187 20.2828 1.96103 20.1777 1.69986 20.0432C1.44319 19.9088 1.2517 19.7494 1.12539 19.5652C1.00358 19.381 0.942463 19.181 0.942049 18.965C0.941643 18.7536 0.979538 18.5759 1.05574 18.4318C1.13642 18.2832 1.24416 18.1637 1.37894 18.0735C1.51822 17.9833 1.68004 17.9177 1.86439 17.8769C2.05325 17.836 2.25564 17.8154 2.47157 17.815C2.64701 17.8147 2.82926 17.8458 3.01831 17.9084C3.20737 17.971 3.39196 18.0539 3.5721 18.157C3.75673 18.2556 3.93013 18.3678 4.09232 18.4934C4.25899 18.6145 4.40318 18.738 4.52488 18.8637C4.62783 18.5936 4.75096 18.292 4.89427 17.9588C5.04208 17.6256 5.2011 17.2767 5.37135 16.912C5.54158 16.5428 5.7208 16.1668 5.909 15.7841C6.09719 15.3969 6.28539 15.0164 6.47361 14.6426C6.66183 14.2689 6.84558 13.9087 7.02485 13.562C7.20412 13.2152 7.36995 12.8978 7.52235 12.6096C7.67474 12.3214 7.80921 12.067 7.92575 11.8463C8.04678 11.6256 8.14092 11.4568 8.20818 11.3397ZM12.273 16.2712C12.2505 16.2667 12.2303 16.2645 12.2123 16.2646C12.1943 16.2646 12.174 16.2646 12.1515 16.2647C11.9806 16.265 11.821 16.2991 11.6727 16.3668C11.5243 16.4346 11.3873 16.5248 11.2616 16.6375C11.1403 16.7457 11.0303 16.8696 10.9316 17.0093C10.8374 17.1489 10.7522 17.2885 10.676 17.4281C10.5998 17.5632 10.5348 17.6938 10.4811 17.8199C10.4319 17.9459 10.3938 18.0517 10.367 18.1372C10.5243 18.0559 10.6861 17.9634 10.8523 17.8596C11.023 17.7558 11.1825 17.6566 11.3308 17.5618C11.4791 17.4671 11.6071 17.3813 11.7149 17.3047C11.8273 17.228 11.9059 17.1761 11.9508 17.149C12.153 17.0227 12.2922 16.9054 12.3685 16.7973C12.4447 16.6847 12.4828 16.5879 12.4826 16.507C12.4825 16.4395 12.4599 16.3856 12.4149 16.3452C12.3743 16.3047 12.327 16.2801 12.273 16.2712ZM12.5141 15.3396C12.8875 15.3388 13.1666 15.4283 13.3514 15.6079C13.5362 15.7874 13.6289 16.0369 13.6295 16.3563C13.6298 16.5453 13.5807 16.7433 13.4822 16.9504C13.3836 17.1575 13.2131 17.3693 12.9705 17.5857C12.728 17.7976 12.4023 18.0164 11.9934 18.2421C11.589 18.4633 11.0811 18.6869 10.4697 18.913C10.4924 19.0434 10.5624 19.1468 10.6795 19.223C10.7966 19.2948 10.9518 19.3304 11.1453 19.3301C11.3522 19.3297 11.5726 19.3 11.8064 19.2411C12.0447 19.1776 12.2784 19.0985 12.5077 19.0036C12.7414 18.9087 12.9684 18.807 13.1886 18.6986C13.4088 18.5857 13.6065 18.4796 13.7818 18.3803C13.9615 18.281 14.1098 18.1953 14.2267 18.1231C14.348 18.0509 14.4289 18.0057 14.4693 17.9876C14.5097 17.9606 14.5457 17.9448 14.5772 17.9402C14.6132 17.9356 14.6446 17.9333 14.6716 17.9333C14.7256 17.9332 14.7706 17.9466 14.8067 17.9735C14.8427 17.9959 14.872 18.0251 14.8946 18.0611C14.9216 18.0925 14.9397 18.1284 14.9487 18.1689C14.9578 18.2049 14.9624 18.2364 14.9624 18.2634C14.9625 18.3038 14.9581 18.3533 14.9492 18.4118C14.9403 18.4658 14.9067 18.5289 14.8484 18.601C14.8259 18.6235 14.7496 18.6844 14.6193 18.7836C14.4935 18.8828 14.3296 19.0001 14.1274 19.1354C13.9252 19.2708 13.6893 19.4152 13.4197 19.5686C13.1546 19.7176 12.8714 19.8553 12.5703 19.9819C12.2736 20.1084 11.9634 20.2125 11.6397 20.294C11.316 20.3801 10.9967 20.4235 10.6818 20.4241C10.4119 20.4246 10.1711 20.3733 9.95948 20.2703C9.75235 20.1672 9.5744 20.0281 9.42561 19.8529C9.28132 19.6778 9.17072 19.4756 9.09381 19.2463C9.0169 19.017 8.9782 18.7764 8.97771 18.5245C8.97734 18.3311 9.01517 18.1196 9.09121 17.89C9.16723 17.6559 9.27699 17.4218 9.42049 17.1876C9.564 16.9534 9.739 16.7259 9.94551 16.5051C10.1565 16.2798 10.3923 16.0814 10.6529 15.9099C10.9135 15.7385 11.1988 15.6007 11.509 15.4967C11.8237 15.3926 12.1588 15.3402 12.5141 15.3396ZM16.2478 16.493C16.082 16.8172 15.9252 17.1346 15.7773 17.4453C15.6295 17.7515 15.4906 18.0352 15.3606 18.2963C15.3068 18.4044 15.2531 18.5305 15.1994 18.6745C15.1502 18.8141 15.1257 18.9378 15.1259 19.0458C15.126 19.1088 15.1396 19.1582 15.1666 19.1941C15.1982 19.2301 15.2477 19.248 15.3152 19.2478C15.4097 19.2477 15.5288 19.2204 15.6727 19.1662C15.8165 19.1074 15.9716 19.0329 16.1378 18.9426C16.3041 18.8478 16.4793 18.7418 16.6635 18.6245C16.8477 18.5027 17.0274 18.3786 17.2026 18.2523C17.3823 18.1215 17.553 17.993 17.7147 17.8667C17.8764 17.7359 18.0201 17.6165 18.1459 17.5082C18.2178 17.4586 18.2852 17.4338 18.3482 17.4336C18.4246 17.4335 18.4877 17.4671 18.5373 17.5345C18.5869 17.6019 18.6118 17.6873 18.612 17.7908C18.6122 17.8942 18.5877 18 18.5384 18.108C18.4891 18.2161 18.3994 18.322 18.2691 18.4257C17.9772 18.6917 17.6808 18.9442 17.3799 19.1831C17.0834 19.4221 16.7869 19.6341 16.4904 19.8191C16.1983 19.9996 15.9085 20.1441 15.6208 20.2527C15.3331 20.3612 15.0543 20.4157 14.7844 20.4162C14.6044 20.4166 14.4537 20.3921 14.3321 20.3429C14.2106 20.2981 14.1115 20.2353 14.0349 20.1545C13.9627 20.0692 13.9108 19.9725 13.8791 19.8646C13.8474 19.7522 13.8314 19.6331 13.8312 19.5071C13.8308 19.2822 13.8686 19.0482 13.9446 18.8051C14.0206 18.5621 14.1056 18.3437 14.1997 18.1501C14.3341 17.8709 14.4663 17.594 14.5962 17.3194C14.7307 17.0447 14.8606 16.7813 14.9861 16.5292L14.6959 16.5297C14.444 16.5302 14.2708 16.49 14.1761 16.4092C14.0815 16.3285 14.0341 16.2363 14.0339 16.1329C14.0338 16.0879 14.0472 16.0339 14.0741 15.9708C14.1054 15.9033 14.148 15.8425 14.2019 15.7884C14.2603 15.7298 14.3299 15.6802 14.4108 15.6396C14.4917 15.5989 14.5839 15.5785 14.6874 15.5783L15.4161 15.5769L16.8344 12.7469C16.9241 12.5758 17.0341 12.4541 17.1644 12.3819C17.2992 12.3051 17.4386 12.2666 17.5825 12.2664C17.7175 12.2661 17.8412 12.3019 17.9538 12.3736C18.0664 12.4454 18.1229 12.5645 18.1232 12.7309C18.1234 12.8164 18.1033 12.9042 18.063 12.9942C18.0272 13.0797 17.9779 13.181 17.9151 13.2981C17.8748 13.3747 17.8255 13.467 17.7672 13.5751C17.7089 13.6786 17.6462 13.7912 17.5789 13.9128C17.5162 14.0299 17.4489 14.1537 17.3772 14.2843C17.31 14.4149 17.2427 14.541 17.1755 14.6626C17.0231 14.9508 16.8617 15.2547 16.6914 15.5745L18.8912 15.5702C18.9991 15.57 19.0981 15.5766 19.1881 15.5899C19.2781 15.5987 19.3546 15.6211 19.4176 15.6569C19.4852 15.6883 19.537 15.7332 19.5731 15.7916C19.6092 15.85 19.6273 15.9287 19.6275 16.0277C19.6276 16.0771 19.6187 16.1266 19.6008 16.1762C19.5874 16.2257 19.5583 16.2707 19.5134 16.3113C19.473 16.3518 19.4145 16.3857 19.3381 16.4128C19.2662 16.44 19.1718 16.4581 19.0548 16.4674L16.2478 16.493ZM19.7363 16.4391C20.011 16.5825 20.2565 16.7462 20.4727 16.9302C20.689 17.1142 20.8716 17.3096 21.0204 17.5162C21.1738 17.7184 21.2889 17.9251 21.3657 18.1364C21.4471 18.3476 21.488 18.5545 21.4884 18.7569C21.4889 19.0133 21.4151 19.2451 21.2671 19.4523C21.1235 19.655 20.9326 19.8286 20.6945 19.973C20.4608 20.1129 20.1911 20.2191 19.8854 20.2917C19.5841 20.3688 19.2783 20.4076 18.9679 20.4082C18.734 20.4086 18.5068 20.3821 18.2863 20.3285C18.0657 20.2795 17.8632 20.2011 17.6785 20.0935C17.4984 19.9859 17.3429 19.849 17.2121 19.6828C17.0813 19.5121 16.9887 19.3099 16.9343 19.076C16.9252 19.0401 16.9207 19.0108 16.9206 18.9883C16.9204 18.8669 16.963 18.7633 17.0483 18.6777C17.1336 18.5876 17.2279 18.5424 17.3314 18.5422C17.3809 18.5421 17.4349 18.551 17.4934 18.5689C17.5564 18.5868 17.6037 18.6272 17.6353 18.6901C17.694 18.7979 17.7752 18.8945 17.8788 18.9798C17.9869 19.065 18.1063 19.139 18.2369 19.2017C18.3674 19.26 18.5047 19.3069 18.6487 19.3427C18.7972 19.3739 18.9412 19.3893 19.0807 19.3891C19.2246 19.3888 19.3618 19.375 19.4922 19.3478C19.6271 19.3205 19.744 19.2776 19.8428 19.2189C19.9462 19.1602 20.027 19.0858 20.0853 18.9958C20.1436 18.9057 20.1727 18.7954 20.1724 18.665C20.172 18.4355 20.1198 18.2242 20.016 18.031C19.9122 17.8377 19.7769 17.6603 19.6101 17.4987C19.4479 17.3326 19.2609 17.18 19.0492 17.0409C18.842 16.8974 18.6348 16.7606 18.4276 16.6305C18.4051 16.6171 18.3713 16.5789 18.3262 16.516C18.2811 16.4486 18.2584 16.3812 18.2583 16.3137C18.2582 16.2597 18.2716 16.2169 18.2985 16.1854C18.3703 16.0908 18.4534 15.9939 18.5477 15.8948C18.6419 15.7956 18.743 15.7055 18.8508 15.6243C18.9586 15.5386 19.0754 15.4709 19.2013 15.4212C19.3271 15.367 19.4575 15.3397 19.5925 15.3395C19.6914 15.3393 19.7837 15.3526 19.8692 15.3794C19.9547 15.4062 20.0268 15.4421 20.0853 15.487C20.1439 15.5273 20.189 15.5745 20.2206 15.6284C20.2567 15.6778 20.2747 15.725 20.2748 15.77C20.2749 15.833 20.2593 15.8937 20.2279 15.9523C20.1966 16.0108 20.1539 16.0671 20.1001 16.1212C20.0507 16.1753 19.9923 16.2294 19.9249 16.2835C19.8621 16.3376 19.7992 16.3895 19.7363 16.4391ZM28.9729 15.9355C28.9732 16.0749 28.9577 16.2302 28.9266 16.4012C28.8954 16.5677 28.844 16.7252 28.7723 16.8738C28.7006 17.0224 28.6086 17.1463 28.4964 17.2455C28.3841 17.3446 28.2447 17.3944 28.0783 17.3947C27.9883 17.3949 27.9298 17.3815 27.9028 17.3546C27.8802 17.3276 27.8689 17.2804 27.8688 17.2129C27.8687 17.1724 27.8686 17.114 27.8684 17.0375C27.8728 16.9565 27.8749 16.88 27.8747 16.8081C27.8746 16.7271 27.8632 16.6596 27.8406 16.6057C27.818 16.5473 27.7617 16.5181 27.6717 16.5183C27.5683 16.5185 27.4514 16.5592 27.3211 16.6404C27.1953 16.7171 27.0673 16.8186 26.9371 16.9448C26.8113 17.071 26.6879 17.2152 26.5668 17.3774C26.4456 17.535 26.3357 17.6972 26.2371 17.8638C26.1429 18.026 26.0667 18.1836 26.0085 18.3366C25.9549 18.4897 25.9281 18.6202 25.9283 18.7281C25.9286 18.8856 25.9828 19.0092 26.091 19.0989C26.2036 19.1887 26.3544 19.2334 26.5433 19.233C26.7458 19.2326 26.9616 19.1985 27.1909 19.1306C27.4202 19.0627 27.6472 18.9768 27.8719 18.8729C28.1012 18.7689 28.3214 18.6561 28.5326 18.5342C28.7438 18.4123 28.9347 18.2973 29.1055 18.189C29.2807 18.0762 29.4267 17.9814 29.5435 17.9047C29.6603 17.8235 29.7367 17.7739 29.7726 17.7558C29.8446 17.7197 29.912 17.7016 29.975 17.7015C30.029 17.7014 30.074 17.7148 30.11 17.7417C30.1505 17.7641 30.1821 17.7933 30.2046 17.8292C30.2272 17.8607 30.243 17.8966 30.2521 17.9371C30.2611 17.9731 30.2657 18.0046 30.2658 18.0315C30.2658 18.072 30.2614 18.1215 30.2526 18.18C30.2437 18.234 30.21 18.2971 30.1517 18.3691C30.1293 18.3962 30.0552 18.4661 29.9294 18.5788C29.8082 18.6869 29.6487 18.8155 29.4511 18.9643C29.2579 19.1131 29.0333 19.2732 28.7772 19.4447C28.5256 19.6116 28.2538 19.7651 27.9616 19.9051C27.674 20.0451 27.3751 20.1604 27.0649 20.2509C26.7547 20.346 26.4488 20.3938 26.1475 20.3944C25.918 20.3948 25.7133 20.3592 25.5332 20.2876C25.3576 20.216 25.209 20.1195 25.0873 19.9983C24.9656 19.8726 24.8731 19.7266 24.8098 19.5603C24.7465 19.3939 24.7147 19.2186 24.7143 19.0341C24.7139 18.8317 24.7607 18.5999 24.8547 18.3388C24.9487 18.0732 25.0786 17.8031 25.2445 17.5284C25.4104 17.2536 25.6056 16.9834 25.83 16.7175C26.0544 16.4517 26.2969 16.215 26.5574 16.0076C26.8224 15.8002 27.0965 15.6332 27.3796 15.5067C27.6673 15.3802 27.9573 15.3167 28.2497 15.3161C28.3487 15.3159 28.4409 15.327 28.5265 15.3493C28.6165 15.3716 28.693 15.4075 28.7561 15.4568C28.8236 15.5017 28.8755 15.5646 28.9116 15.6455C28.9523 15.7264 28.9727 15.823 28.9729 15.9355ZM32.1117 16.4963C31.9003 16.4967 31.6957 16.5511 31.498 16.6594C31.3047 16.7632 31.1318 16.903 30.9792 17.0787C30.8311 17.25 30.7122 17.4459 30.6227 17.6665C30.5331 17.8826 30.4886 18.1053 30.489 18.3348C30.4892 18.4202 30.4961 18.5147 30.5098 18.6181C30.5235 18.7171 30.5507 18.8115 30.5913 18.9014C30.6365 18.9868 30.6996 19.0586 30.7807 19.1169C30.8618 19.1753 30.9698 19.2043 31.1047 19.204C31.3117 19.2036 31.5117 19.1493 31.705 19.0409C31.9027 18.9281 32.0778 18.7838 32.2304 18.6081C32.383 18.4278 32.5041 18.2252 32.5937 18.0001C32.6832 17.775 32.7277 17.5477 32.7273 17.3183C32.7271 17.2283 32.7202 17.1361 32.7065 17.0417C32.6973 16.9427 32.6702 16.8528 32.625 16.7719C32.5844 16.691 32.5235 16.6259 32.4425 16.5766C32.3614 16.5228 32.2511 16.496 32.1117 16.4963ZM32.4603 15.308C32.6312 15.3077 32.8135 15.3298 33.007 15.3744C33.205 15.419 33.3873 15.4952 33.554 15.6028C33.7206 15.7104 33.8581 15.8541 33.9664 16.0339C34.0792 16.2091 34.1359 16.4272 34.1364 16.6881C34.1366 16.823 34.1189 16.9783 34.0833 17.1538C34.0476 17.3248 33.994 17.5048 33.9224 17.6939C33.9675 17.7478 34.0193 17.7859 34.0778 17.8083C34.1363 17.8307 34.1993 17.8418 34.2668 17.8417C34.3612 17.8415 34.4647 17.8143 34.577 17.7601C34.6939 17.7059 34.8129 17.6359 34.9342 17.5502C35.0555 17.4645 35.1768 17.3676 35.2981 17.2594C35.4193 17.1512 35.5338 17.043 35.6416 16.9348C35.7493 16.8267 35.8458 16.7253 35.9311 16.6306C36.0209 16.5315 36.095 16.4481 36.1533 16.3805C36.1848 16.349 36.223 16.3332 36.268 16.3331C36.3309 16.333 36.3872 16.3666 36.4368 16.434C36.4864 16.4969 36.5114 16.5868 36.5116 16.7038C36.5118 16.8207 36.4761 16.9557 36.4044 17.1088C36.3372 17.2619 36.2093 17.4218 36.0207 17.5886C35.913 17.7058 35.7895 17.841 35.6504 17.9942C35.5112 18.1474 35.363 18.2917 35.2058 18.4269C35.0486 18.5622 34.8847 18.6772 34.7139 18.772C34.5432 18.8668 34.3723 18.9144 34.2014 18.9147C34.0844 18.9149 33.9697 18.8971 33.8571 18.8614C33.7491 18.8256 33.6388 18.7673 33.5262 18.6866C33.3647 18.9388 33.1807 19.1686 32.9742 19.3759C32.7676 19.5832 32.5363 19.7613 32.2802 19.9103C32.0286 20.0592 31.7544 20.1745 31.4576 20.256C31.1654 20.342 30.8528 20.3854 30.5199 20.386C30.394 20.3862 30.2477 20.3618 30.0812 20.3126C29.9147 20.2635 29.7548 20.1828 29.6017 20.0706C29.453 19.9539 29.3267 19.8035 29.2229 19.6193C29.1191 19.435 29.0669 19.2102 29.0664 18.9448C29.0661 18.7648 29.0949 18.5489 29.1529 18.2968C29.2109 18.0448 29.2981 17.786 29.4146 17.5204C29.5355 17.2502 29.6857 16.9845 29.8651 16.7233C30.0491 16.4575 30.2668 16.2209 30.5183 16.0135C30.7698 15.8016 31.0574 15.6323 31.381 15.5058C31.7047 15.3747 32.0644 15.3088 32.4603 15.308ZM37.8337 16.4853C37.6223 16.4857 37.4177 16.5401 37.22 16.6484C37.0267 16.7522 36.8538 16.892 36.7012 17.0678C36.5531 17.239 36.4343 17.4349 36.3447 17.6555C36.2552 17.8716 36.2106 18.0944 36.211 18.3238C36.2112 18.4092 36.2181 18.5037 36.2318 18.6071C36.2455 18.7061 36.2727 18.8005 36.3133 18.8904C36.3585 18.9758 36.4216 19.0476 36.5027 19.1059C36.5838 19.1643 36.6918 19.1933 36.8268 19.193C37.0337 19.1927 37.2338 19.1383 37.427 19.03C37.6247 18.9171 37.7999 18.7728 37.9525 18.5971C38.1051 18.4169 38.2261 18.2142 38.3157 17.9891C38.4052 17.764 38.4498 17.5367 38.4493 17.3073C38.4492 17.2174 38.4422 17.1251 38.4286 17.0307C38.4194 16.9318 38.3922 16.8418 38.3471 16.761C38.3064 16.6801 38.2456 16.615 38.1645 16.5656C38.0834 16.5118 37.9732 16.485 37.8337 16.4853ZM38.1823 15.297C38.3532 15.2967 38.5355 15.3188 38.729 15.3634C38.927 15.4081 39.1094 15.4842 39.276 15.5918C39.4427 15.6995 39.5801 15.8432 39.6884 16.0229C39.8012 16.1981 39.8579 16.4162 39.8584 16.6771C39.8586 16.812 39.841 16.9673 39.8053 17.1428C39.7696 17.3138 39.716 17.4938 39.6444 17.6829C39.6895 17.7368 39.7413 17.7749 39.7998 17.7973C39.8583 17.8197 39.9213 17.8308 39.9888 17.8307C40.0833 17.8305 40.1867 17.8033 40.299 17.7491C40.4159 17.6949 40.535 17.625 40.6563 17.5393C40.7776 17.4536 40.8988 17.3566 41.0201 17.2484C41.1413 17.1402 41.2558 17.032 41.3636 16.9239C41.4714 16.8157 41.5679 16.7143 41.6532 16.6197C41.7429 16.5205 41.817 16.4372 41.8754 16.3696C41.9068 16.338 41.945 16.3222 41.99 16.3221C42.053 16.322 42.1093 16.3556 42.1589 16.423C42.2085 16.4859 42.2334 16.5758 42.2336 16.6928C42.2338 16.8097 42.1981 16.9447 42.1264 17.0978C42.0592 17.2509 41.9313 17.4109 41.7427 17.5777C41.635 17.6948 41.5115 17.83 41.3724 17.9832C41.2332 18.1364 41.085 18.2807 40.9279 18.4159C40.7707 18.5512 40.6067 18.6662 40.4359 18.761C40.2652 18.8558 40.0943 18.9034 39.9234 18.9037C39.8064 18.9039 39.6917 18.8861 39.5792 18.8504C39.4711 18.8146 39.3608 18.7563 39.2482 18.6756C39.0867 18.9278 38.9027 19.1576 38.6962 19.3649C38.4897 19.5722 38.2583 19.7504 38.0022 19.8993C37.7506 20.0482 37.4764 20.1635 37.1797 20.245C36.8874 20.331 36.5749 20.3744 36.242 20.375C36.116 20.3753 35.9698 20.3508 35.8032 20.3016C35.6367 20.2525 35.4768 20.1718 35.3237 20.0596C35.175 19.943 35.0488 19.7925 34.9449 19.6083C34.8411 19.424 34.789 19.1992 34.7884 18.9338C34.7881 18.7539 34.8169 18.5379 34.8749 18.2859C34.9329 18.0338 35.0201 17.775 35.1366 17.5094C35.2575 17.2392 35.4077 16.9735 35.5872 16.7123C35.7711 16.4465 35.9888 16.2099 36.2403 16.0025C36.4918 15.7906 36.7794 15.6214 37.1031 15.4948C37.4267 15.3637 37.7864 15.2978 38.1823 15.297ZM42.7938 16.7389C42.9644 16.5632 43.144 16.3896 43.3326 16.2183C43.5257 16.0425 43.7256 15.8869 43.9322 15.7516C44.1434 15.6117 44.3636 15.4988 44.5928 15.4129C44.8221 15.327 45.0627 15.2838 45.3146 15.2833C45.463 15.283 45.616 15.3007 45.7735 15.3364C45.9311 15.3676 46.0729 15.4213 46.199 15.4976C46.3296 15.5738 46.4355 15.6725 46.5167 15.7938C46.5979 15.9151 46.6386 16.0635 46.639 16.239C46.6395 16.5269 46.5726 16.7879 46.4381 17.0221C46.3081 17.2562 46.1375 17.4658 45.9264 17.6506C45.7154 17.8354 45.4795 18.0001 45.2189 18.1445C44.9627 18.2845 44.711 18.4042 44.4638 18.5036C44.4009 18.5307 44.3425 18.5668 44.2886 18.6119C44.2347 18.6525 44.1875 18.6976 44.1472 18.7471C44.1112 18.7922 44.0821 18.8395 44.0597 18.889C44.0373 18.934 44.0261 18.9723 44.0262 19.0038C44.0263 19.0578 44.0421 19.105 44.0737 19.1454C44.1097 19.1813 44.1705 19.1992 44.256 19.199C44.4224 19.1987 44.6113 19.1646 44.8226 19.0967C45.0339 19.0288 45.2789 18.9272 45.5575 18.7917C45.8406 18.6517 46.1619 18.4756 46.5214 18.2635C46.8854 18.0514 47.3033 17.8009 47.775 17.5121C47.8514 17.467 47.9234 17.4443 47.9908 17.4442C48.0763 17.444 48.1438 17.4754 48.1934 17.5383C48.2431 17.6012 48.268 17.6843 48.2682 17.7878C48.2684 17.9138 48.2214 18.0578 48.1273 18.2199C48.0376 18.3775 47.885 18.5285 47.6693 18.6729C47.3683 18.8579 47.0605 19.0497 46.746 19.2482C46.4315 19.4468 46.1079 19.6296 45.7754 19.7967C45.4428 19.9592 45.1012 20.0926 44.7505 20.1967C44.3998 20.3054 44.04 20.36 43.6712 20.3608C43.0324 20.362 42.7125 20.0859 42.7114 19.5326C42.7108 19.2402 42.7711 18.9837 42.8921 18.763C43.0176 18.5379 43.168 18.3419 43.3431 18.1751C43.5227 18.0083 43.7091 17.8663 43.9023 17.749C44.0955 17.6271 44.2618 17.5188 44.401 17.4241C44.5089 17.3609 44.61 17.2932 44.7043 17.2211C44.7986 17.1489 44.8817 17.0745 44.9535 16.9979C45.0298 16.9213 45.0882 16.8447 45.1285 16.7682C45.1733 16.6871 45.1957 16.6061 45.1955 16.5251C45.1953 16.3947 45.1344 16.3296 45.013 16.3298C44.5631 16.3307 43.9342 16.766 43.1261 17.6357C42.9421 17.834 42.7737 18.0278 42.6212 18.217C42.4686 18.4017 42.325 18.5842 42.1904 18.7644C42.0602 18.9446 41.9346 19.1203 41.8135 19.2914C41.6924 19.4581 41.5735 19.618 41.4568 19.7712C41.1067 20.1677 40.7944 20.3663 40.52 20.3668C40.3895 20.3671 40.295 20.3425 40.2365 20.2931C40.1779 20.2483 40.1485 20.1606 40.1482 20.0301C40.1482 20.0121 40.1482 19.9941 40.1481 19.9762C40.1481 19.9582 40.1503 19.9379 40.1548 19.9154C40.1636 19.8254 40.2016 19.6881 40.2687 19.5036C40.3358 19.319 40.4186 19.1097 40.5171 18.8756C40.6201 18.6415 40.7321 18.3916 40.8531 18.1259C40.9785 17.8603 41.1017 17.6014 41.2227 17.3492C41.3437 17.0926 41.4579 16.854 41.5655 16.6333C41.673 16.4082 41.7626 16.2213 41.8343 16.0727L43.9582 11.7164C43.9851 11.6579 44.0255 11.6016 44.0793 11.5475C44.1377 11.4934 44.2006 11.446 44.268 11.4054C44.3399 11.3603 44.4141 11.3264 44.4905 11.3038C44.5714 11.2766 44.6524 11.263 44.7333 11.2628C44.9358 11.2624 45.0753 11.3004 45.1519 11.3767C45.233 11.453 45.2737 11.5452 45.2739 11.6531C45.2741 11.7521 45.2495 11.8556 45.2003 11.9637C45.1555 12.0717 45.1017 12.173 45.0389 12.2676C44.8506 12.6054 44.6624 12.9656 44.4742 13.3484C44.2905 13.7266 44.1068 14.1115 43.9231 14.5033C43.7394 14.895 43.5534 15.2822 43.3652 15.6649C43.177 16.0432 42.9865 16.4012 42.7938 16.7389ZM52.6988 16.423C52.533 16.7472 52.3761 17.0647 52.2283 17.3753C52.0804 17.6815 51.9415 17.9652 51.8115 18.2263C51.7578 18.3344 51.704 18.4605 51.6503 18.6045C51.6011 18.7441 51.5766 18.8678 51.5768 18.9758C51.5769 19.0388 51.5905 19.0882 51.6176 19.1242C51.6491 19.1601 51.6987 19.178 51.7661 19.1779C51.8606 19.1777 51.9798 19.1505 52.1236 19.0962C52.2674 19.0374 52.4225 18.9629 52.5888 18.8726C52.755 18.7778 52.9303 18.6718 53.1145 18.5545C53.2987 18.4327 53.4784 18.3086 53.6536 18.1823C53.8333 18.0515 54.004 17.923 54.1657 17.7967C54.3274 17.666 54.4711 17.5465 54.5968 17.4383C54.6687 17.3886 54.7361 17.3638 54.7991 17.3637C54.8756 17.3635 54.9386 17.3971 54.9882 17.4645C55.0379 17.5319 55.0628 17.6173 55.063 17.7208C55.0632 17.8242 55.0386 17.93 54.9893 18.0381C54.9401 18.1461 54.8503 18.252 54.72 18.3557C54.4282 18.6217 54.1317 18.8742 53.8308 19.1132C53.5344 19.3522 53.2379 19.5642 52.9413 19.7492C52.6493 19.9297 52.3594 20.0742 52.0717 20.1827C51.784 20.2912 51.5052 20.3457 51.2353 20.3462C51.0554 20.3466 50.9046 20.3221 50.7831 20.2729C50.6615 20.2281 50.5624 20.1653 50.4858 20.0845C50.4137 19.9992 50.3618 19.9026 50.3301 19.7947C50.2984 19.6823 50.2824 19.5631 50.2821 19.4371C50.2817 19.2122 50.3195 18.9782 50.3955 18.7351C50.4715 18.4921 50.5566 18.2737 50.6507 18.0801C50.7851 17.801 50.9172 17.5241 51.0472 17.2494C51.1816 16.9747 51.3115 16.7113 51.437 16.4592L51.1469 16.4597C50.895 16.4602 50.7217 16.4201 50.6271 16.3393C50.5324 16.2585 50.485 16.1663 50.4848 16.0629C50.4847 16.0179 50.4981 15.9639 50.525 15.9009C50.5564 15.8333 50.599 15.7725 50.6529 15.7184C50.7112 15.6598 50.7809 15.6102 50.8618 15.5696C50.9427 15.5289 51.0348 15.5085 51.1383 15.5083L51.867 15.5069L53.2854 12.6769C53.375 12.5058 53.485 12.3841 53.6153 12.3119C53.7501 12.2352 53.8895 12.1967 54.0335 12.1964C54.1684 12.1961 54.2922 12.2319 54.4048 12.3036C54.5174 12.3754 54.5738 12.4945 54.5742 12.6609C54.5743 12.7464 54.5542 12.8342 54.5139 12.9242C54.4781 13.0098 54.4288 13.1111 54.3661 13.2281C54.3257 13.3047 54.2764 13.397 54.2182 13.5051C54.1599 13.6087 54.0971 13.7212 54.0299 13.8428C53.9671 13.9599 53.8999 14.0837 53.8281 14.2143C53.7609 14.3449 53.6937 14.471 53.6264 14.5926C53.474 14.8808 53.3127 15.1848 53.1424 15.5045L55.3421 15.5002C55.4501 15.5 55.549 15.5066 55.639 15.5199C55.729 15.5287 55.8055 15.5511 55.8686 15.587C55.9361 15.6183 55.9879 15.6632 56.024 15.7216C56.0601 15.78 56.0783 15.8587 56.0785 15.9577C56.0786 16.0072 56.0697 16.0567 56.0518 16.1062C56.0384 16.1557 56.0092 16.2007 55.9643 16.2413C55.9239 16.2819 55.8655 16.3157 55.7891 16.3429C55.7171 16.37 55.6227 16.3882 55.5058 16.3974L52.6988 16.423ZM56.8352 16.4488C56.6237 16.4492 56.4192 16.5036 56.2214 16.6119C56.0282 16.7158 55.8553 16.8555 55.7027 17.0313C55.5545 17.2025 55.4357 17.3984 55.3462 17.619C55.2566 17.8351 55.2121 18.0579 55.2125 18.2873C55.2127 18.3728 55.2196 18.4672 55.2333 18.5707C55.247 18.6696 55.2741 18.764 55.3148 18.8539C55.3599 18.9393 55.4231 19.0111 55.5041 19.0695C55.5852 19.1278 55.6933 19.1568 55.8282 19.1566C56.0351 19.1562 56.2352 19.1018 56.4284 18.9935C56.6262 18.8806 56.8013 18.7363 56.9539 18.5606C57.1065 18.3804 57.2276 18.1777 57.3171 17.9526C57.4067 17.7275 57.4512 17.5003 57.4508 17.2708C57.4506 17.1809 57.4437 17.0887 57.43 16.9942C57.4208 16.8953 57.3937 16.8054 57.3485 16.7245C57.3079 16.6436 57.247 16.5785 57.166 16.5291C57.0849 16.4753 56.9746 16.4485 56.8352 16.4488ZM57.1838 15.2605C57.3547 15.2602 57.5369 15.2824 57.7305 15.327C57.9285 15.3716 58.1108 15.4477 58.2775 15.5553C58.4441 15.663 58.5816 15.8067 58.6899 15.9864C58.8027 16.1616 58.8593 16.3797 58.8598 16.6406C58.8601 16.7756 58.8424 16.9308 58.8068 17.1063C58.7711 17.2773 58.7175 17.4573 58.6458 17.6464C58.6909 17.7003 58.7427 17.7385 58.8013 17.7608C58.8598 17.7832 58.9228 17.7943 58.9903 17.7942C59.0847 17.794 59.1881 17.7668 59.3005 17.7126C59.4174 17.6584 59.5364 17.5885 59.6577 17.5028C59.779 17.4171 59.9003 17.3201 60.0215 17.2119C60.1428 17.1037 60.2573 16.9955 60.3651 16.8874C60.4728 16.7792 60.5693 16.6778 60.6546 16.5832C60.7444 16.484 60.8185 16.4007 60.8768 16.3331C60.9082 16.3015 60.9464 16.2857 60.9914 16.2856C61.0544 16.2855 61.1107 16.3191 61.1603 16.3865C61.2099 16.4494 61.2348 16.5393 61.2351 16.6563C61.2353 16.7732 61.1996 16.9083 61.1279 17.0614C61.0607 17.2144 60.9328 17.3744 60.7442 17.5412C60.6364 17.6583 60.513 17.7935 60.3738 17.9467C60.2347 18.1 60.0865 18.2442 59.9293 18.3795C59.7721 18.5147 59.6082 18.6297 59.4374 18.7245C59.2666 18.8193 59.0958 18.8669 58.9248 18.8672C58.8079 18.8674 58.6931 18.8497 58.5806 18.8139C58.4726 18.7781 58.3623 18.7198 58.2496 18.6391C58.0882 18.8913 57.9042 19.1211 57.6976 19.3284C57.4911 19.5357 57.2598 19.7139 57.0037 19.8628C56.752 20.0118 56.4778 20.127 56.1811 20.2085C55.8889 20.2946 55.5763 20.3379 55.2434 20.3385C55.1175 20.3388 54.9712 20.3143 54.8047 20.2652C54.6381 20.216 54.4783 20.1353 54.3251 20.0232C54.1765 19.9065 54.0502 19.756 53.9464 19.5718C53.8426 19.3876 53.7904 19.1627 53.7899 18.8973C53.7896 18.7174 53.8184 18.5014 53.8764 18.2494C53.9344 17.9973 54.0216 17.7385 54.138 17.4729C54.259 17.2027 54.4092 16.937 54.5886 16.6758C54.7725 16.41 54.9903 16.1734 55.2418 15.966C55.4933 15.7541 55.7809 15.5849 56.1045 15.4583C56.4281 15.3272 56.7879 15.2613 57.1838 15.2605ZM63.1015 15.2492C63.2994 15.2488 63.4726 15.2732 63.6212 15.3224C63.7697 15.3716 63.8958 15.4253 63.9994 15.4836C64.1165 15.5554 64.2201 15.6339 64.3102 15.7192C64.3731 15.6786 64.4405 15.6402 64.5124 15.6041C64.5753 15.5725 64.645 15.5454 64.7214 15.5227C64.7979 15.4956 64.8743 15.4819 64.9508 15.4818C65.1487 15.4814 65.3017 15.5216 65.4099 15.6024C65.518 15.6831 65.5721 15.7798 65.5724 15.8922C65.5725 15.9507 65.5568 16.0092 65.5255 16.0677L63.9522 19.06L64.0802 18.945C64.6105 18.6336 65.0463 18.3899 65.3879 18.2138C65.7294 18.0332 66.0013 17.9 66.2036 17.8141C66.4059 17.7282 66.5497 17.6762 66.6351 17.6581C66.7251 17.6354 66.7813 17.6241 66.8038 17.624C66.9072 17.6238 66.986 17.6641 67.0402 17.745C67.0988 17.8214 67.1282 17.918 67.1284 18.035C67.1287 18.1655 67.0907 18.2982 67.0145 18.4333C66.9428 18.5684 66.8305 18.6654 66.6777 18.7241C66.4754 18.828 66.2395 18.9409 65.9698 19.0629C65.7001 19.1803 65.4192 19.3113 65.1271 19.4559C64.835 19.6004 64.5406 19.7629 64.2441 19.9434C63.952 20.1194 63.678 20.3156 63.422 20.532L62.1175 22.903C62.01 23.1596 61.9115 23.3689 61.8218 23.5311C61.7367 23.6932 61.6514 23.8215 61.5661 23.9162C61.4809 24.0108 61.3933 24.0762 61.3034 24.1124C61.2135 24.1485 61.11 24.1667 60.9931 24.1669C60.8176 24.1673 60.6781 24.1068 60.5744 23.9856C60.4752 23.8643 60.4254 23.7182 60.4251 23.5472C60.4247 23.3673 60.4671 23.158 60.5521 22.9195C60.6371 22.6809 60.7558 22.422 60.9082 22.1428C61.0651 21.8681 61.2535 21.5776 61.4733 21.2713C61.6932 20.9694 61.9378 20.6608 62.2071 20.3454L63.0417 19.2777C62.8711 19.4354 62.7027 19.5707 62.5364 19.6835C62.3702 19.7963 62.2107 19.8888 62.0579 19.9611C61.9051 20.0288 61.7612 20.0786 61.6263 20.1104C61.4959 20.1421 61.3812 20.1581 61.2823 20.1583C61.1023 20.1586 60.9358 20.1184 60.7827 20.0378C60.6296 19.9526 60.4967 19.8359 60.3839 19.6876C60.2757 19.5394 60.1899 19.3641 60.1265 19.1618C60.0631 18.9595 60.0312 18.7391 60.0308 18.5007C60.0298 18.0059 60.1234 17.5581 60.3116 17.1574C60.5043 16.7567 60.7488 16.4166 61.0451 16.1371C61.346 15.8531 61.6762 15.6343 62.0358 15.4806C62.3999 15.327 62.7551 15.2498 63.1015 15.2492ZM62.8473 16.4373C62.6359 16.4377 62.4313 16.492 62.2336 16.6004C62.0359 16.7042 61.8607 16.844 61.7081 17.0198C61.5555 17.191 61.4344 17.3892 61.3449 17.6142C61.2553 17.8393 61.2108 18.0711 61.2112 18.3095C61.2114 18.3815 61.216 18.4602 61.2252 18.5457C61.2388 18.6266 61.2637 18.703 61.2999 18.7749C61.3405 18.8468 61.3968 18.9075 61.4689 18.9568C61.5455 19.0016 61.649 19.0239 61.7794 19.0237C61.8739 19.0235 61.984 18.9828 62.1098 18.9016C62.2401 18.8159 62.3726 18.7099 62.5073 18.5837C62.6465 18.453 62.7812 18.311 62.9114 18.1578C63.0415 18.0001 63.1582 17.8469 63.2614 17.6983C63.369 17.5496 63.4543 17.4168 63.517 17.2997C63.5798 17.1781 63.6111 17.0881 63.611 17.0296C63.6108 16.9306 63.5836 16.8452 63.5295 16.7733C63.4754 16.697 63.4078 16.6341 63.3267 16.5848C63.2501 16.5355 63.1669 16.4996 63.0768 16.4773C62.9913 16.4505 62.9148 16.4371 62.8473 16.4373ZM69.1289 16.162C69.1064 16.1576 69.0862 16.1554 69.0682 16.1554C69.0502 16.1554 69.0299 16.1555 69.0074 16.1555C68.8365 16.1559 68.6769 16.1899 68.5286 16.2577C68.3802 16.3254 68.2432 16.4157 68.1175 16.5284C67.9962 16.6366 67.8862 16.7605 67.7875 16.9001C67.6933 17.0398 67.6081 17.1794 67.5319 17.319C67.4557 17.4541 67.3907 17.5846 67.337 17.7107C67.2878 17.8368 67.2497 17.9425 67.2229 18.0281C67.3802 17.9468 67.542 17.8543 67.7082 17.7505C67.8789 17.6467 68.0385 17.5474 68.1867 17.4527C68.335 17.3579 68.463 17.2722 68.5708 17.1955C68.6832 17.1188 68.7618 17.0669 68.8067 17.0399C69.0089 16.9135 69.1481 16.7963 69.2244 16.6882C69.3007 16.5756 69.3387 16.4788 69.3386 16.3978C69.3384 16.3303 69.3158 16.2764 69.2708 16.236C69.2302 16.1956 69.1829 16.1709 69.1289 16.162ZM69.37 15.2304C69.7434 15.2297 70.0225 15.3191 70.2073 15.4987C70.3921 15.6783 70.4848 15.9278 70.4854 16.2472C70.4857 16.4361 70.4366 16.6341 70.3381 16.8412C70.2395 17.0484 70.069 17.2601 69.8265 17.4765C69.5839 17.6884 69.2582 17.9072 68.8493 18.1329C68.4449 18.3541 67.937 18.5778 67.3256 18.8039C67.3483 18.9343 67.4183 19.0376 67.5354 19.1138C67.6525 19.1856 67.8077 19.2213 68.0012 19.2209C68.2081 19.2205 68.4285 19.1909 68.6623 19.1319C68.9006 19.0685 69.1343 18.9893 69.3636 18.8944C69.5973 18.7995 69.8243 18.6978 70.0445 18.5895C70.2647 18.4766 70.4625 18.3705 70.6377 18.2712C70.8175 18.1719 70.9657 18.0861 71.0826 18.0139C71.2039 17.9417 71.2848 17.8966 71.3252 17.8785C71.3657 17.8514 71.4016 17.8356 71.4331 17.831C71.4691 17.8265 71.5006 17.8242 71.5275 17.8241C71.5815 17.824 71.6265 17.8374 71.6626 17.8643C71.6986 17.8868 71.7279 17.916 71.7505 17.9519C71.7775 17.9833 71.7956 18.0193 71.8047 18.0598C71.8137 18.0957 71.8183 18.1272 71.8183 18.1542C71.8184 18.1947 71.814 18.2442 71.8051 18.3027C71.7962 18.3567 71.7626 18.4197 71.7043 18.4918C71.6818 18.5143 71.6055 18.5752 71.4752 18.6744C71.3494 18.7736 71.1855 18.8909 70.9833 19.0263C70.7811 19.1616 70.5452 19.306 70.2756 19.4595C70.0105 19.6084 69.7273 19.7462 69.4262 19.8727C69.1295 19.9992 68.8193 20.1033 68.4956 20.1849C68.1719 20.271 67.8526 20.3143 67.5377 20.3149C67.2678 20.3155 67.027 20.2642 66.8154 20.1611C66.6083 20.0581 66.4303 19.9189 66.2815 19.7438C66.1372 19.5686 66.0266 19.3664 65.9497 19.1371C65.8728 18.9079 65.8341 18.6673 65.8336 18.4154C65.8332 18.2219 65.8711 18.0104 65.9471 17.7809C66.0231 17.5468 66.1329 17.3127 66.2764 17.0785C66.4199 16.8443 66.5949 16.6168 66.8014 16.3959C67.0124 16.1706 67.2482 15.9722 67.5088 15.8008C67.7694 15.6293 68.0547 15.4916 68.3649 15.3875C68.6796 15.2835 69.0147 15.2311 69.37 15.2304ZM73.1037 16.3838C72.9379 16.708 72.7811 17.0255 72.6332 17.3362C72.4854 17.6423 72.3465 17.926 72.2165 18.1872C72.1627 18.2952 72.109 18.4213 72.0553 18.5654C72.0061 18.7049 71.9816 18.8287 71.9818 18.9366C71.9819 18.9996 71.9955 19.0491 72.0225 19.085C72.0541 19.1209 72.1036 19.1388 72.1711 19.1387C72.2656 19.1385 72.3847 19.1113 72.5286 19.057C72.6724 18.9983 72.8275 18.9237 72.9937 18.8335C73.16 18.7387 73.3352 18.6326 73.5194 18.5153C73.7036 18.3935 73.8833 18.2694 74.0585 18.1432C74.2382 18.0124 74.4089 17.8838 74.5706 17.7575C74.7323 17.6268 74.876 17.5073 75.0018 17.3991C75.0737 17.3495 75.1411 17.3246 75.2041 17.3245C75.2806 17.3243 75.3436 17.358 75.3932 17.4253C75.4428 17.4927 75.4677 17.5781 75.4679 17.6816C75.4681 17.7851 75.4436 17.8908 75.3943 17.9989C75.345 18.1069 75.2553 18.2128 75.125 18.3165C74.8331 18.5825 74.5367 18.835 74.2358 19.074C73.9393 19.313 73.6428 19.525 73.3463 19.71C73.0542 19.8905 72.7644 20.035 72.4767 20.1435C72.189 20.252 71.9102 20.3065 71.6403 20.3071C71.4603 20.3074 71.3096 20.283 71.188 20.2337C71.0665 20.1889 70.9674 20.1262 70.8908 20.0453C70.8186 19.96 70.7667 19.8634 70.735 19.7555C70.7033 19.6431 70.6873 19.5239 70.6871 19.3979C70.6867 19.173 70.7245 18.939 70.8005 18.696C70.8765 18.4529 70.9615 18.2346 71.0556 18.041C71.19 17.7618 71.3222 17.4849 71.4521 17.2102C71.5866 16.9356 71.7165 16.6722 71.842 16.42L71.5518 16.4206C71.2999 16.421 71.1267 16.3809 71.032 16.3001C70.9374 16.2193 70.89 16.1272 70.8898 16.0237C70.8897 15.9787 70.9031 15.9247 70.93 15.8617C70.9613 15.7941 71.004 15.7333 71.0578 15.6793C71.1162 15.6207 71.1858 15.571 71.2667 15.5304C71.3476 15.4898 71.4398 15.4693 71.5433 15.4691L72.272 15.4677L73.6903 12.6377C73.78 12.4666 73.89 12.345 74.0203 12.2727C74.1551 12.196 74.2945 12.1575 74.4384 12.1572C74.5734 12.157 74.6971 12.1927 74.8097 12.2645C74.9223 12.3362 74.9788 12.4553 74.9791 12.6218C74.9793 12.7072 74.9592 12.795 74.9189 12.885C74.8831 12.9706 74.8338 13.0719 74.771 13.189C74.7307 13.2655 74.6814 13.3578 74.6231 13.4659C74.5648 13.5695 74.5021 13.6821 74.4348 13.8037C74.3721 13.9207 74.3048 14.0446 74.2331 14.1752C74.1659 14.3058 74.0987 14.4318 74.0314 14.5534C73.879 14.8416 73.7177 15.1456 73.5473 15.4653L75.7471 15.4611C75.855 15.4609 75.954 15.4674 76.044 15.4807C76.134 15.4896 76.2105 15.5119 76.2736 15.5478C76.3411 15.5791 76.3929 15.624 76.429 15.6824C76.4651 15.7408 76.4833 15.8195 76.4834 15.9185C76.4835 15.968 76.4746 16.0175 76.4567 16.067C76.4433 16.1165 76.4142 16.1616 76.3693 16.2021C76.3289 16.2427 76.2705 16.2765 76.194 16.3037C76.1221 16.3308 76.0277 16.349 75.9107 16.3582L73.1037 16.3838ZM74.0131 19.0677C74.1206 18.838 74.2438 18.5836 74.3827 18.3045C74.5217 18.0208 74.6606 17.7416 74.7995 17.467C74.9429 17.1878 75.0774 16.9244 75.2028 16.6767C75.3283 16.4245 75.4336 16.2107 75.5188 16.0351L77.7371 11.6515C77.764 11.593 77.8043 11.5367 77.8582 11.4826C77.9166 11.4285 77.9817 11.3812 78.0536 11.3405C78.1255 11.2954 78.2019 11.2615 78.2828 11.2389C78.3638 11.2117 78.4447 11.1981 78.5257 11.1979C78.7236 11.1976 78.8609 11.2355 78.9375 11.3119C79.0141 11.3837 79.0525 11.4736 79.0527 11.5815C79.0529 11.6805 79.0284 11.7863 78.9791 11.8988C78.9299 12.0069 78.8738 12.1082 78.811 12.2028C78.6137 12.5406 78.4232 12.8828 78.2394 13.2295C78.0602 13.5718 77.8786 13.9185 77.6949 14.2697C77.5156 14.6165 77.3341 14.9632 77.1503 15.3099C76.9665 15.6522 76.7737 15.9922 76.572 16.3299C76.6977 16.2082 76.8301 16.082 76.9693 15.9513C77.113 15.8206 77.268 15.7011 77.4342 15.5928C77.6005 15.4845 77.7825 15.3964 77.9803 15.3286C78.1781 15.2562 78.3985 15.2198 78.6414 15.2193C78.7853 15.2191 78.9225 15.2323 79.0531 15.259C79.1836 15.2858 79.2984 15.3305 79.3974 15.3933C79.4965 15.4516 79.5754 15.5347 79.6341 15.6425C79.6928 15.7459 79.7223 15.874 79.7226 16.027C79.7229 16.2294 79.6918 16.4162 79.6292 16.5872C79.571 16.7538 79.4948 16.9136 79.4007 17.0668C79.3065 17.2154 79.2033 17.3595 79.0911 17.4992C78.9789 17.6344 78.8712 17.774 78.768 17.9182C78.6693 18.0578 78.5819 18.2042 78.5057 18.3573C78.434 18.5104 78.3893 18.6769 78.3717 18.8569C78.3717 18.8659 78.3695 18.8749 78.365 18.8839C78.365 18.8929 78.365 18.9019 78.3651 18.9109C78.3652 19.0008 78.3946 19.057 78.4531 19.0794C78.5161 19.1018 78.5949 19.1129 78.6893 19.1127C78.8108 19.1124 78.9412 19.0897 79.0806 19.0444C79.2199 18.9947 79.3593 18.9315 79.4986 18.8547C79.6424 18.7735 79.7839 18.6832 79.9231 18.584C80.0669 18.4847 80.2017 18.3833 80.3274 18.2796C80.4577 18.1759 80.5767 18.0767 80.6845 17.982C80.7923 17.8828 80.8843 17.7972 80.9606 17.725C81.0011 17.689 81.0437 17.6619 81.0887 17.6438C81.1336 17.6257 81.1764 17.6167 81.2168 17.6166C81.2978 17.6164 81.3654 17.6478 81.4195 17.7107C81.4781 17.769 81.5074 17.8499 81.5076 17.9534C81.5078 18.0479 81.4743 18.1559 81.4071 18.2775C81.3443 18.3991 81.2343 18.5207 81.0771 18.6425C80.8301 18.8589 80.5786 19.0663 80.3226 19.2647C80.0665 19.4632 79.8082 19.6391 79.5476 19.7925C79.287 19.946 79.0263 20.068 78.7656 20.1584C78.5093 20.2489 78.2575 20.2944 78.0101 20.2948C77.6907 20.2954 77.4341 20.224 77.2404 20.0804C77.0467 19.9323 76.9496 19.7008 76.9489 19.3859C76.9485 19.1565 76.9863 18.9405 77.0624 18.7379C77.143 18.5308 77.2393 18.3327 77.3514 18.1436C77.468 17.9499 77.5914 17.7652 77.7215 17.5896C77.8516 17.4094 77.966 17.2337 78.0646 17.0626C78.1184 16.986 78.1588 16.9162 78.1857 16.8532C78.217 16.7856 78.2326 16.7136 78.2325 16.6371C78.2324 16.5697 78.2143 16.5157 78.1782 16.4753C78.1421 16.4304 78.0858 16.408 78.0094 16.4082C77.744 16.4087 77.4989 16.4744 77.2742 16.6052C77.0496 16.7361 76.843 16.903 76.6544 17.1058C76.4659 17.3086 76.2909 17.5316 76.1294 17.7748C75.9679 18.0135 75.8176 18.2432 75.6786 18.4639C75.6158 18.563 75.5508 18.6779 75.4836 18.8084C75.4209 18.9345 75.3536 19.0651 75.2819 19.2002C75.2147 19.3353 75.143 19.4704 75.0668 19.6055C74.9905 19.7361 74.9098 19.8532 74.8245 19.9568C74.7437 20.0604 74.6562 20.1438 74.5618 20.207C74.472 20.2701 74.3776 20.3018 74.2786 20.302C74.1212 20.3023 73.9996 20.2553 73.914 20.161C73.8283 20.0712 73.7854 19.9566 73.7851 19.8171C73.7849 19.7136 73.8027 19.6056 73.8385 19.4931C73.8742 19.3761 73.9324 19.2343 74.0131 19.0677ZM83.5015 16.1345C83.479 16.13 83.4587 16.1278 83.4407 16.1278C83.4227 16.1279 83.4025 16.1279 83.38 16.1279C83.2091 16.1283 83.0494 16.1623 82.9011 16.2301C82.7528 16.2978 82.6158 16.3881 82.49 16.5008C82.3688 16.609 82.2588 16.7329 82.1601 16.8725C82.0659 17.0122 81.9807 17.1518 81.9045 17.2914C81.8283 17.4265 81.7633 17.5571 81.7096 17.6831C81.6603 17.8092 81.6223 17.915 81.5954 18.0005C81.7527 17.9192 81.9145 17.8267 82.0808 17.7229C82.2515 17.6191 82.411 17.5198 82.5593 17.4251C82.7075 17.3303 82.8356 17.2446 82.9434 17.1679C83.0557 17.0912 83.1343 17.0393 83.1793 17.0123C83.3815 16.8859 83.5207 16.7687 83.5969 16.6606C83.6732 16.548 83.7113 16.4512 83.7111 16.3702C83.711 16.3027 83.6884 16.2488 83.6433 16.2084C83.6027 16.168 83.5555 16.1433 83.5015 16.1345ZM83.7426 15.2028C84.116 15.2021 84.395 15.2915 84.5798 15.4711C84.7646 15.6507 84.8573 15.9002 84.8579 16.2196C84.8583 16.4085 84.8092 16.6065 84.7106 16.8136C84.612 17.0208 84.4415 17.2325 84.199 17.4489C83.9565 17.6608 83.6308 17.8796 83.2218 18.1053C82.8174 18.3265 82.3095 18.5502 81.6982 18.7763C81.7209 18.9067 81.7908 19.01 81.9079 19.0863C82.025 19.158 82.1803 19.1937 82.3737 19.1933C82.5807 19.1929 82.801 19.1633 83.0348 19.1043C83.2731 19.0409 83.5069 18.9617 83.7361 18.8668C83.9699 18.7719 84.1968 18.6703 84.4171 18.5619C84.6373 18.449 84.835 18.3429 85.0103 18.2436C85.19 18.1443 85.3383 18.0585 85.4551 17.9863C85.5764 17.9141 85.6573 17.869 85.6978 17.8509C85.7382 17.8238 85.7742 17.808 85.8056 17.8035C85.8416 17.7989 85.8731 17.7966 85.9001 17.7965C85.9541 17.7964 85.9991 17.8098 86.0351 17.8368C86.0712 17.8592 86.1004 17.8884 86.123 17.9243C86.1501 17.9557 86.1681 17.9917 86.1772 18.0322C86.1863 18.0681 86.1908 18.0996 86.1909 18.1266C86.191 18.1671 86.1865 18.2166 86.1777 18.2751C86.1688 18.3291 86.1352 18.3921 86.0768 18.4642C86.0544 18.4867 85.978 18.5476 85.8477 18.6468C85.722 18.746 85.558 18.8633 85.3558 18.9987C85.1537 19.134 84.9178 19.2784 84.6482 19.4319C84.383 19.5808 84.0999 19.7186 83.7987 19.8451C83.5021 19.9716 83.1919 20.0757 82.8682 20.1573C82.5444 20.2434 82.2251 20.2867 81.9102 20.2873C81.6403 20.2879 81.3996 20.2366 81.1879 20.1335C80.9808 20.0305 80.8029 19.8914 80.6541 19.7162C80.5098 19.541 80.3992 19.3388 80.3223 19.1095C80.2453 18.8803 80.2067 18.6397 80.2062 18.3878C80.2058 18.1943 80.2436 17.9828 80.3197 17.7533C80.3957 17.5192 80.5054 17.2851 80.6489 17.0509C80.7924 16.8167 80.9675 16.5892 81.174 16.3683C81.385 16.143 81.6207 15.9446 81.8813 15.7732C82.1419 15.6017 82.4273 15.464 82.7375 15.3599C83.0522 15.2559 83.3872 15.2035 83.7426 15.2028ZM87.8201 16.1734C87.9953 16.0651 88.1751 15.9658 88.3593 15.8755C88.5481 15.7851 88.7301 15.7083 88.9054 15.645C89.0807 15.5772 89.2471 15.5251 89.4045 15.4888C89.5663 15.448 89.7102 15.4275 89.8362 15.4273C90.0386 15.4269 90.1939 15.4761 90.3021 15.5748C90.4147 15.6691 90.4713 15.8309 90.4717 16.0603C90.4718 16.1098 90.4696 16.1638 90.4653 16.2223C90.4609 16.2763 90.452 16.3348 90.4386 16.3978C90.4163 16.5148 90.3491 16.6521 90.237 16.8098C90.1248 16.9674 89.9924 17.1319 89.8398 17.3031C89.6917 17.4744 89.5301 17.6479 89.355 17.8236C89.1844 17.9949 89.025 18.1549 88.8768 18.3036C88.7331 18.4479 88.6119 18.5741 88.5132 18.6822C88.4189 18.7904 88.3718 18.8647 88.3719 18.9052C88.3719 18.9411 88.3742 18.9659 88.3788 18.9794C88.3833 18.9929 88.4035 18.9996 88.4395 18.9995C88.6823 18.8956 88.9519 18.7713 89.2485 18.6268C89.5497 18.4778 89.8485 18.3265 90.1451 18.173C90.4417 18.0195 90.7226 17.8705 90.9877 17.726C91.2528 17.5771 91.4775 17.4484 91.6618 17.3401C91.7022 17.3175 91.7426 17.2995 91.7831 17.2859C91.8281 17.2678 91.8685 17.2587 91.9045 17.2587C91.9855 17.2585 92.053 17.2854 92.1071 17.3393C92.1612 17.3931 92.1883 17.4651 92.1885 17.555C92.1887 17.6585 92.1439 17.7778 92.0542 17.9129C91.969 18.0435 91.8231 18.181 91.6164 18.3254C91.4592 18.4246 91.2817 18.5374 91.084 18.6638C90.8908 18.7856 90.6864 18.9142 90.4707 19.0496C90.2595 19.1804 90.0438 19.3091 89.8237 19.4354C89.608 19.5618 89.399 19.6747 89.1968 19.774C88.9945 19.8734 88.8035 19.9547 88.6237 20.018C88.4484 20.0769 88.2955 20.1064 88.165 20.1066C87.8546 20.1072 87.6206 20.0335 87.4628 19.8853C87.3096 19.7372 87.2327 19.5461 87.2323 19.3122C87.2322 19.2762 87.2344 19.2492 87.2389 19.2312C87.27 19.0332 87.3281 18.8419 87.4132 18.6573C87.4983 18.4727 87.5947 18.2971 87.7024 18.1305C87.81 17.9638 87.9222 17.8061 88.0388 17.6575C88.1555 17.5043 88.261 17.3624 88.3552 17.2318C88.4539 17.0966 88.5346 16.9727 88.5974 16.8602C88.6601 16.7476 88.6914 16.6441 88.6912 16.5496C88.6912 16.5271 88.6867 16.5046 88.6776 16.4821C88.6686 16.4597 88.6483 16.4485 88.6168 16.4485C88.5628 16.4486 88.4729 16.469 88.347 16.5098C88.2257 16.5505 88.0953 16.6047 87.956 16.6725C87.8167 16.7402 87.6841 16.8192 87.5583 16.9094C87.4325 16.9951 87.3427 17.0875 87.2889 17.1866C87.2172 17.3127 87.1343 17.4725 87.0402 17.6661C86.9461 17.8597 86.8475 18.0624 86.7445 18.274C86.6459 18.4856 86.5496 18.695 86.4555 18.9021C86.3615 19.1092 86.2808 19.287 86.2136 19.4356C86.1599 19.5662 86.0882 19.6833 85.9984 19.7869C85.9131 19.8905 85.8188 19.9784 85.7155 20.0506C85.6122 20.1228 85.5066 20.1792 85.3987 20.2199C85.2908 20.2606 85.1919 20.281 85.1019 20.2812C84.9984 20.2814 84.9151 20.2546 84.8521 20.2007C84.7935 20.1469 84.7641 20.0592 84.7638 19.9377C84.7637 19.8882 84.7704 19.8275 84.7837 19.7555C84.8016 19.679 84.8352 19.5957 84.8845 19.5056C84.9651 19.3525 85.0458 19.1859 85.1264 19.0059C85.2116 18.8257 85.3079 18.6209 85.4154 18.3913C85.5229 18.1571 85.6461 17.8915 85.785 17.5943C85.9284 17.2926 86.0964 16.9459 86.2891 16.5542C86.226 16.5003 86.1719 16.4352 86.1268 16.3588C86.0861 16.2779 86.0657 16.179 86.0655 16.0621C86.0652 15.9541 86.0876 15.8618 86.1324 15.7853C86.1772 15.7042 86.2378 15.6389 86.3142 15.5892C86.3906 15.5396 86.4782 15.5034 86.5772 15.4808C86.6806 15.4536 86.7885 15.4399 86.901 15.4397C87.0179 15.4394 87.1349 15.4505 87.2519 15.4727C87.3689 15.4905 87.4724 15.5195 87.5625 15.5598C87.657 15.6002 87.7336 15.6495 87.7922 15.7079C87.8508 15.7662 87.8801 15.8336 87.8803 15.9101C87.8803 15.9236 87.8759 15.9416 87.8669 15.9641C87.8579 15.9866 87.8468 16.0114 87.8333 16.0384C87.8244 16.0654 87.8154 16.0902 87.8065 16.1127C87.7975 16.1352 87.793 16.1532 87.7931 16.1667C87.7931 16.1757 87.7953 16.1802 87.7998 16.1802L87.8066 16.1802L87.8201 16.1734Z" fill="black"/>
<path d="M25.2498 30.916C25.1359 30.916 25.0423 30.8814 24.9691 30.8123C24.8999 30.7391 24.8654 30.6496 24.8654 30.5438V27.0169C24.8654 26.9111 24.8999 26.8237 24.9691 26.7545C25.0423 26.6813 25.1318 26.6447 25.2376 26.6447H27.2207C27.3265 26.6447 27.4139 26.6793 27.4831 26.7484C27.5563 26.8135 27.5929 26.8989 27.5929 27.0047C27.5929 27.0942 27.5563 27.1735 27.4831 27.2427C27.4139 27.3118 27.3265 27.3464 27.2207 27.3464H25.5732L25.6281 27.2732V28.4997L25.5854 28.4203H26.9461C27.0519 28.4203 27.1393 28.4549 27.2085 28.5241C27.2817 28.5892 27.3183 28.6746 27.3183 28.7804C27.3183 28.8698 27.2817 28.9492 27.2085 29.0183C27.1393 29.0875 27.0519 29.1221 26.9461 29.1221H25.5732L25.6281 29.0671V30.5438C25.6281 30.6496 25.5894 30.7391 25.5122 30.8123C25.4389 30.8814 25.3515 30.916 25.2498 30.916ZM30.7841 27.5905C30.8899 27.5905 30.9774 27.6251 31.0465 27.6942C31.1157 27.7634 31.1503 27.8529 31.1503 27.9627V30.5438C31.1503 30.6496 31.1157 30.7391 31.0465 30.8123C30.9774 30.8814 30.8899 30.916 30.7841 30.916C30.6784 30.916 30.5909 30.8814 30.5218 30.8123C30.4526 30.7391 30.418 30.6496 30.418 30.5438V30.2448L30.5523 30.2997C30.5523 30.3526 30.5238 30.4177 30.4668 30.495C30.4099 30.5682 30.3326 30.6414 30.235 30.7147C30.1373 30.7879 30.0214 30.8509 29.8872 30.9038C29.757 30.9526 29.6146 30.977 29.46 30.977C29.1793 30.977 28.9251 30.9058 28.6973 30.7635C28.4695 30.617 28.2885 30.4177 28.1542 30.1655C28.0241 29.9092 27.959 29.6163 27.959 29.2868C27.959 28.9532 28.0241 28.6604 28.1542 28.4081C28.2885 28.1519 28.4675 27.9525 28.6912 27.8102C28.9149 27.6637 29.1631 27.5905 29.4356 27.5905C29.6105 27.5905 29.7712 27.6169 29.9177 27.6698C30.0641 27.7227 30.1902 27.7898 30.296 27.8712C30.4058 27.9525 30.4892 28.0359 30.5462 28.1214C30.6072 28.2027 30.6377 28.2719 30.6377 28.3288L30.418 28.4081V27.9627C30.418 27.8569 30.4526 27.7695 30.5218 27.7003C30.5909 27.6271 30.6784 27.5905 30.7841 27.5905ZM29.5516 30.3058C29.7305 30.3058 29.8872 30.2611 30.0214 30.1716C30.1556 30.0821 30.2594 29.9601 30.3326 29.8055C30.4099 29.6509 30.4485 29.478 30.4485 29.2868C30.4485 29.0916 30.4099 28.9166 30.3326 28.762C30.2594 28.6075 30.1556 28.4854 30.0214 28.3959C29.8872 28.3064 29.7305 28.2617 29.5516 28.2617C29.3766 28.2617 29.2221 28.3064 29.0878 28.3959C28.9536 28.4854 28.8478 28.6075 28.7705 28.762C28.6973 28.9166 28.6607 29.0916 28.6607 29.2868C28.6607 29.478 28.6973 29.6509 28.7705 29.8055C28.8478 29.9601 28.9536 30.0821 29.0878 30.1716C29.2221 30.2611 29.3766 30.3058 29.5516 30.3058ZM31.7539 30.4096C31.7132 30.3526 31.6949 30.2794 31.699 30.1899C31.7031 30.1004 31.7559 30.0231 31.8576 29.958C31.9227 29.9173 31.9919 29.9011 32.0651 29.9092C32.1383 29.9133 32.2095 29.9499 32.2787 30.019C32.3966 30.137 32.5207 30.2285 32.6509 30.2936C32.7811 30.3587 32.9438 30.3913 33.139 30.3913C33.2001 30.3872 33.2672 30.379 33.3404 30.3668C33.4136 30.3506 33.4767 30.318 33.5296 30.2692C33.5865 30.2163 33.615 30.137 33.615 30.0312C33.615 29.9417 33.5845 29.8706 33.5235 29.8177C33.4624 29.7648 33.3811 29.72 33.2794 29.6834C33.1817 29.6468 33.0719 29.6122 32.9499 29.5797C32.8238 29.5431 32.6936 29.5024 32.5594 29.4577C32.4292 29.4129 32.3092 29.356 32.1993 29.2868C32.0895 29.2136 32 29.118 31.9309 29C31.8617 28.8821 31.8271 28.7336 31.8271 28.5546C31.8271 28.3512 31.8841 28.1783 31.998 28.0359C32.1119 27.8935 32.2583 27.7837 32.4373 27.7064C32.6204 27.6291 32.8116 27.5905 33.0109 27.5905C33.137 27.5905 33.2692 27.6068 33.4075 27.6393C33.5458 27.6678 33.678 27.7166 33.8041 27.7857C33.9302 27.8508 34.036 27.9383 34.1214 28.0481C34.1662 28.1091 34.1926 28.1824 34.2008 28.2678C34.2089 28.3532 34.1703 28.4305 34.0848 28.4997C34.0238 28.5485 33.9526 28.5709 33.8713 28.5668C33.7899 28.5587 33.7228 28.5302 33.6699 28.4814C33.6007 28.3919 33.5072 28.3207 33.3892 28.2678C33.2753 28.2149 33.1431 28.1885 32.9926 28.1885C32.9316 28.1885 32.8645 28.1966 32.7912 28.2129C32.7221 28.2251 32.6611 28.2556 32.6082 28.3044C32.5553 28.3492 32.5288 28.4224 32.5288 28.5241C32.5288 28.6176 32.5594 28.6929 32.6204 28.7498C32.6814 28.8027 32.7628 28.8475 32.8645 28.8841C32.9702 28.9166 33.0821 28.9492 33.2001 28.9817C33.3221 29.0143 33.4462 29.0529 33.5723 29.0977C33.6984 29.1424 33.8143 29.2014 33.9201 29.2746C34.0258 29.3478 34.1113 29.4434 34.1764 29.5614C34.2414 29.6753 34.274 29.8217 34.274 30.0007C34.274 30.2082 34.213 30.3852 34.0909 30.5316C33.9689 30.678 33.8163 30.7899 33.6333 30.8672C33.4502 30.9404 33.2631 30.977 33.0719 30.977C32.8319 30.977 32.5919 30.9364 32.3519 30.855C32.1119 30.7696 31.9126 30.6211 31.7539 30.4096ZM34.9234 27.7125H36.3695C36.4671 27.7125 36.5485 27.7451 36.6136 27.8102C36.6787 27.8752 36.7112 27.9566 36.7112 28.0542C36.7112 28.1478 36.6787 28.2271 36.6136 28.2922C36.5485 28.3532 36.4671 28.3837 36.3695 28.3837H34.9234C34.8257 28.3837 34.7444 28.3512 34.6793 28.2861C34.6142 28.221 34.5817 28.1397 34.5817 28.042C34.5817 27.9485 34.6142 27.8712 34.6793 27.8102C34.7444 27.7451 34.8257 27.7125 34.9234 27.7125ZM35.5763 26.9498C35.682 26.9498 35.7675 26.9864 35.8325 27.0596C35.9017 27.1288 35.9363 27.2162 35.9363 27.322V30.0373C35.9363 30.0943 35.9464 30.1411 35.9668 30.1777C35.9912 30.2143 36.0217 30.2407 36.0583 30.257C36.099 30.2733 36.1417 30.2814 36.1865 30.2814C36.2353 30.2814 36.28 30.2733 36.3207 30.257C36.3614 30.2367 36.4082 30.2265 36.461 30.2265C36.518 30.2265 36.5688 30.2529 36.6136 30.3058C36.6624 30.3587 36.6868 30.4319 36.6868 30.5255C36.6868 30.6394 36.6238 30.733 36.4976 30.8062C36.3756 30.8794 36.2434 30.916 36.101 30.916C36.0156 30.916 35.92 30.9099 35.8142 30.8977C35.7125 30.8814 35.6149 30.8469 35.5213 30.794C35.4319 30.737 35.3566 30.6516 35.2956 30.5377C35.2346 30.4238 35.204 30.2672 35.204 30.0679V27.322C35.204 27.2162 35.2386 27.1288 35.3078 27.0596C35.381 26.9864 35.4705 26.9498 35.5763 26.9498ZM40.3995 30.977C40.1107 30.977 39.8503 30.914 39.6185 30.7879C39.3907 30.6618 39.2097 30.497 39.0754 30.2936C38.9452 30.0902 38.8801 29.8726 38.8801 29.6407C38.8801 29.4373 38.9147 29.2522 38.9839 29.0854C39.0571 28.9146 39.1649 28.7641 39.3073 28.6339C39.4537 28.5037 39.6388 28.3939 39.8626 28.3044L40.3385 28.7987C40.0537 28.8597 39.8626 28.9532 39.7649 29.0793C39.6714 29.2014 39.6246 29.3519 39.6246 29.5309C39.6246 29.6529 39.6551 29.7729 39.7161 29.8909C39.7771 30.0048 39.8768 30.1004 40.0151 30.1777C40.1534 30.2509 40.3385 30.2875 40.5704 30.2875C40.7616 30.2875 40.9324 30.2448 41.0829 30.1594C41.2375 30.0699 41.3697 29.954 41.4796 29.8116C41.5935 29.6651 41.685 29.5044 41.7541 29.3295C41.8274 29.1505 41.8762 28.9695 41.9006 28.7865C41.9087 28.7214 41.9331 28.6705 41.9738 28.6339C42.0186 28.5973 42.0918 28.579 42.1935 28.579C42.2992 28.579 42.3826 28.6217 42.4437 28.7071C42.5047 28.7926 42.527 28.8922 42.5108 29.0061C42.4742 29.2502 42.403 29.4902 42.2972 29.7261C42.1955 29.958 42.0572 30.1696 41.8823 30.3607C41.7114 30.5479 41.5019 30.6984 41.2538 30.8123C41.0097 30.9221 40.725 30.977 40.3995 30.977ZM42.5718 30.9282C42.523 30.9282 42.4803 30.9221 42.4437 30.9099C42.4111 30.8977 42.3847 30.8835 42.3643 30.8672C42.0714 30.615 41.803 30.3831 41.5589 30.1716C41.3189 29.956 41.0972 29.7506 40.8938 29.5553C40.6904 29.36 40.4992 29.1607 40.3202 28.9573C40.1778 28.7946 40.0476 28.6481 39.9297 28.518C39.8117 28.3878 39.7161 28.2617 39.6429 28.1397C39.5737 28.0136 39.5392 27.8752 39.5392 27.7247C39.5392 27.5254 39.592 27.3403 39.6978 27.1695C39.8076 26.9945 39.9622 26.8542 40.1615 26.7484C40.3609 26.6386 40.5968 26.5837 40.8694 26.5837C41.1501 26.5837 41.4023 26.6305 41.626 26.724C41.8538 26.8176 42.0063 26.9417 42.0836 27.0962C42.0877 27.1003 42.0979 27.1267 42.1141 27.1756C42.1304 27.2203 42.1386 27.2732 42.1386 27.3342C42.1386 27.4115 42.1101 27.4786 42.0531 27.5356C41.9962 27.5925 41.9189 27.621 41.8213 27.621C41.7562 27.621 41.7053 27.6088 41.6687 27.5844C41.6321 27.56 41.6036 27.5356 41.5833 27.5112C41.4938 27.3932 41.3901 27.3118 41.2721 27.2671C41.1582 27.2183 41.0239 27.1939 40.8694 27.1939C40.6863 27.1939 40.546 27.2427 40.4483 27.3403C40.3548 27.4379 40.308 27.5539 40.308 27.6881C40.308 27.8142 40.3527 27.9403 40.4422 28.0664C40.5317 28.1885 40.6334 28.3044 40.7473 28.4142C40.8653 28.5241 40.9629 28.6217 41.0402 28.7071C41.1663 28.8414 41.3067 28.9858 41.4612 29.1404C41.6199 29.2909 41.7785 29.4394 41.9372 29.5858C42.0958 29.7282 42.2423 29.8624 42.3765 29.9885C42.5148 30.1106 42.6267 30.2123 42.7121 30.2936C42.765 30.3424 42.8037 30.3913 42.8281 30.4401C42.8565 30.4889 42.8708 30.5479 42.8708 30.617C42.8708 30.6699 42.8464 30.735 42.7976 30.8123C42.7528 30.8896 42.6776 30.9282 42.5718 30.9282ZM46.4847 27.5905C46.6555 27.5905 46.8121 27.6169 46.9545 27.6698C47.0969 27.7227 47.2189 27.7898 47.3206 27.8712C47.4264 27.9525 47.5078 28.0359 47.5647 28.1214C47.6257 28.2027 47.6562 28.2719 47.6562 28.3288L47.4976 28.4081V27.9627C47.4976 27.8569 47.5322 27.7695 47.6013 27.7003C47.6705 27.6271 47.7579 27.5905 47.8637 27.5905C47.9695 27.5905 48.0569 27.6251 48.1261 27.6942C48.1952 27.7634 48.2298 27.8529 48.2298 27.9627V30.678C48.2298 31.032 48.1525 31.3147 47.9979 31.5262C47.8474 31.7418 47.6481 31.8964 47.4 31.9899C47.1518 32.0876 46.8854 32.1364 46.6006 32.1364C46.5192 32.1364 46.4135 32.1262 46.2833 32.1059C46.1531 32.0855 46.0291 32.0611 45.9111 32.0327C45.7931 32.0042 45.7036 31.9777 45.6426 31.9533C45.5206 31.9005 45.4351 31.8333 45.3863 31.752C45.3416 31.6747 45.3334 31.5913 45.3619 31.5018C45.3985 31.3838 45.4575 31.3025 45.5389 31.2577C45.6202 31.217 45.7057 31.213 45.7952 31.2455C45.8358 31.2577 45.903 31.2821 45.9965 31.3187C46.0901 31.3554 46.1918 31.3879 46.3016 31.4164C46.4155 31.4489 46.5152 31.4652 46.6006 31.4652C46.9057 31.4652 47.1315 31.4042 47.2779 31.2821C47.4244 31.1601 47.4976 30.9913 47.4976 30.7757V30.2448L47.5708 30.2997C47.5708 30.3526 47.5423 30.4177 47.4854 30.495C47.4325 30.5682 47.3572 30.6414 47.2596 30.7147C47.166 30.7879 47.0542 30.8509 46.924 30.9038C46.7938 30.9526 46.6555 30.977 46.5091 30.977C46.2203 30.977 45.9599 30.9058 45.728 30.7635C45.4962 30.617 45.3131 30.4177 45.1789 30.1655C45.0446 29.9092 44.9775 29.6163 44.9775 29.2868C44.9775 28.9532 45.0446 28.6604 45.1789 28.4081C45.3131 28.1519 45.4941 27.9525 45.7219 27.8102C45.9497 27.6637 46.204 27.5905 46.4847 27.5905ZM46.6006 28.2617C46.4176 28.2617 46.2569 28.3064 46.1186 28.3959C45.9802 28.4854 45.8724 28.6075 45.7952 28.762C45.7179 28.9166 45.6792 29.0916 45.6792 29.2868C45.6792 29.478 45.7179 29.6509 45.7952 29.8055C45.8724 29.9601 45.9802 30.0821 46.1186 30.1716C46.2569 30.2611 46.4176 30.3058 46.6006 30.3058C46.7877 30.3058 46.9504 30.2611 47.0888 30.1716C47.2271 30.0821 47.3349 29.9601 47.4122 29.8055C47.4894 29.6509 47.5281 29.478 47.5281 29.2868C47.5281 29.0916 47.4894 28.9166 47.4122 28.762C47.3349 28.6075 47.2271 28.4854 47.0888 28.3959C46.9504 28.3064 46.7877 28.2617 46.6006 28.2617ZM52.0689 29.2868C52.0689 29.6204 51.9936 29.9153 51.8431 30.1716C51.6967 30.4238 51.4974 30.6211 51.2451 30.7635C50.997 30.9058 50.7183 30.977 50.4092 30.977C50.1 30.977 49.8193 30.9058 49.5671 30.7635C49.319 30.6211 49.1197 30.4238 48.9691 30.1716C48.8227 29.9153 48.7495 29.6204 48.7495 29.2868C48.7495 28.9532 48.8227 28.6604 48.9691 28.4081C49.1197 28.1519 49.319 27.9525 49.5671 27.8102C49.8193 27.6637 50.1 27.5905 50.4092 27.5905C50.7183 27.5905 50.997 27.6637 51.2451 27.8102C51.4974 27.9525 51.6967 28.1519 51.8431 28.4081C51.9936 28.6604 52.0689 28.9532 52.0689 29.2868ZM51.3367 29.2868C51.3367 29.0793 51.294 28.9004 51.2085 28.7498C51.1272 28.5953 51.0153 28.4753 50.8729 28.3898C50.7346 28.3044 50.58 28.2617 50.4092 28.2617C50.2383 28.2617 50.0817 28.3044 49.9393 28.3898C49.801 28.4753 49.6892 28.5953 49.6037 28.7498C49.5224 28.9004 49.4817 29.0793 49.4817 29.2868C49.4817 29.4902 49.5224 29.6692 49.6037 29.8238C49.6892 29.9743 49.801 30.0923 49.9393 30.1777C50.0817 30.2631 50.2383 30.3058 50.4092 30.3058C50.58 30.3058 50.7346 30.2631 50.8729 30.1777C51.0153 30.0923 51.1272 29.9743 51.2085 29.8238C51.294 29.6692 51.3367 29.4902 51.3367 29.2868ZM55.8766 29.2868C55.8766 29.6204 55.8014 29.9153 55.6508 30.1716C55.5044 30.4238 55.3051 30.6211 55.0529 30.7635C54.8047 30.9058 54.5261 30.977 54.2169 30.977C53.9077 30.977 53.6271 30.9058 53.3748 30.7635C53.1267 30.6211 52.9274 30.4238 52.7769 30.1716C52.6304 29.9153 52.5572 29.6204 52.5572 29.2868C52.5572 28.9532 52.6304 28.6604 52.7769 28.4081C52.9274 28.1519 53.1267 27.9525 53.3748 27.8102C53.6271 27.6637 53.9077 27.5905 54.2169 27.5905C54.5261 27.5905 54.8047 27.6637 55.0529 27.8102C55.3051 27.9525 55.5044 28.1519 55.6508 28.4081C55.8014 28.6604 55.8766 28.9532 55.8766 29.2868ZM55.1444 29.2868C55.1444 29.0793 55.1017 28.9004 55.0163 28.7498C54.9349 28.5953 54.823 28.4753 54.6806 28.3898C54.5423 28.3044 54.3878 28.2617 54.2169 28.2617C54.0461 28.2617 53.8894 28.3044 53.7471 28.3898C53.6087 28.4753 53.4969 28.5953 53.4115 28.7498C53.3301 28.9004 53.2894 29.0793 53.2894 29.2868C53.2894 29.4902 53.3301 29.6692 53.4115 29.8238C53.4969 29.9743 53.6087 30.0923 53.7471 30.1777C53.8894 30.2631 54.0461 30.3058 54.2169 30.3058C54.3878 30.3058 54.5423 30.2631 54.6806 30.1777C54.823 30.0923 54.9349 29.9743 55.0163 29.8238C55.1017 29.6692 55.1444 29.4902 55.1444 29.2868ZM59.1901 26.4006C59.2959 26.4006 59.3833 26.4352 59.4525 26.5044C59.5216 26.5735 59.5562 26.663 59.5562 26.7728V30.5438C59.5562 30.6496 59.5216 30.7391 59.4525 30.8123C59.3833 30.8814 59.2959 30.916 59.1901 30.916C59.0843 30.916 58.9969 30.8814 58.9277 30.8123C58.8585 30.7391 58.824 30.6496 58.824 30.5438V30.2448L58.9582 30.2997C58.9582 30.3526 58.9297 30.4177 58.8728 30.495C58.8158 30.5682 58.7385 30.6414 58.6409 30.7147C58.5433 30.7879 58.4273 30.8509 58.2931 30.9038C58.1629 30.9526 58.0206 30.977 57.866 30.977C57.5853 30.977 57.331 30.9058 57.1032 30.7635C56.8754 30.617 56.6944 30.4177 56.5602 30.1655C56.43 29.9092 56.3649 29.6163 56.3649 29.2868C56.3649 28.9532 56.43 28.6604 56.5602 28.4081C56.6944 28.1519 56.8734 27.9525 57.0971 27.8102C57.3209 27.6637 57.569 27.5905 57.8416 27.5905C58.0165 27.5905 58.1772 27.6169 58.3236 27.6698C58.4701 27.7227 58.5962 27.7898 58.7019 27.8712C58.8118 27.9525 58.8952 28.0359 58.9521 28.1214C59.0131 28.2027 59.0436 28.2719 59.0436 28.3288L58.824 28.4081V26.7728C58.824 26.6671 58.8585 26.5796 58.9277 26.5105C58.9969 26.4372 59.0843 26.4006 59.1901 26.4006ZM57.9575 30.3058C58.1365 30.3058 58.2931 30.2611 58.4273 30.1716C58.5616 30.0821 58.6653 29.9601 58.7385 29.8055C58.8158 29.6509 58.8545 29.478 58.8545 29.2868C58.8545 29.0916 58.8158 28.9166 58.7385 28.762C58.6653 28.6075 58.5616 28.4854 58.4273 28.3959C58.2931 28.3064 58.1365 28.2617 57.9575 28.2617C57.7826 28.2617 57.628 28.3064 57.4938 28.3959C57.3595 28.4854 57.2538 28.6075 57.1765 28.762C57.1032 28.9166 57.0666 29.0916 57.0666 29.2868C57.0666 29.478 57.1032 29.6509 57.1765 29.8055C57.2538 29.9601 57.3595 30.0821 57.4938 30.1716C57.628 30.2611 57.7826 30.3058 57.9575 30.3058ZM63.7372 26.4006C63.8267 26.4006 63.9142 26.4128 63.9996 26.4372C64.085 26.4616 64.1562 26.5023 64.2132 26.5593C64.2701 26.6122 64.2986 26.6833 64.2986 26.7728C64.2986 26.8745 64.2681 26.9559 64.2071 27.0169C64.1501 27.0739 64.083 27.1023 64.0057 27.1023C63.9691 27.1023 63.9142 27.0942 63.841 27.0779C63.7677 27.0576 63.6965 27.0474 63.6274 27.0474C63.5257 27.0474 63.4464 27.0698 63.3894 27.1145C63.3365 27.1593 63.2999 27.2122 63.2796 27.2732C63.2592 27.3301 63.2491 27.381 63.2491 27.4257V30.5438C63.2491 30.6496 63.2145 30.7391 63.1453 30.8123C63.0762 30.8814 62.9887 30.916 62.883 30.916C62.7772 30.916 62.6897 30.8814 62.6206 30.8123C62.5514 30.7391 62.5169 30.6496 62.5169 30.5438V27.4318C62.5169 27.143 62.6185 26.8989 62.8219 26.6996C63.0253 26.5003 63.3304 26.4006 63.7372 26.4006ZM63.8043 27.7125C63.902 27.7125 63.9833 27.7451 64.0484 27.8102C64.1135 27.8712 64.1461 27.9505 64.1461 28.0481C64.1461 28.1458 64.1135 28.2271 64.0484 28.2922C63.9833 28.3532 63.902 28.3837 63.8043 28.3837H62.1873C62.0897 28.3837 62.0084 28.3532 61.9433 28.2922C61.8782 28.2271 61.8456 28.1458 61.8456 28.0481C61.8456 27.9505 61.8782 27.8712 61.9433 27.8102C62.0084 27.7451 62.0897 27.7125 62.1873 27.7125H63.8043ZM67.705 29.2868C67.705 29.6204 67.6297 29.9153 67.4792 30.1716C67.3328 30.4238 67.1334 30.6211 66.8812 30.7635C66.6331 30.9058 66.3544 30.977 66.0453 30.977C65.7361 30.977 65.4554 30.9058 65.2032 30.7635C64.9551 30.6211 64.7557 30.4238 64.6052 30.1716C64.4588 29.9153 64.3856 29.6204 64.3856 29.2868C64.3856 28.9532 64.4588 28.6604 64.6052 28.4081C64.7557 28.1519 64.9551 27.9525 65.2032 27.8102C65.4554 27.6637 65.7361 27.5905 66.0453 27.5905C66.3544 27.5905 66.6331 27.6637 66.8812 27.8102C67.1334 27.9525 67.3328 28.1519 67.4792 28.4081C67.6297 28.6604 67.705 28.9532 67.705 29.2868ZM66.9728 29.2868C66.9728 29.0793 66.93 28.9004 66.8446 28.7498C66.7633 28.5953 66.6514 28.4753 66.509 28.3898C66.3707 28.3044 66.2161 28.2617 66.0453 28.2617C65.8744 28.2617 65.7178 28.3044 65.5754 28.3898C65.4371 28.4753 65.3252 28.5953 65.2398 28.7498C65.1585 28.9004 65.1178 29.0793 65.1178 29.2868C65.1178 29.4902 65.1585 29.6692 65.2398 29.8238C65.3252 29.9743 65.4371 30.0923 65.5754 30.1777C65.7178 30.2631 65.8744 30.3058 66.0453 30.3058C66.2161 30.3058 66.3707 30.2631 66.509 30.1777C66.6514 30.0923 66.7633 29.9743 66.8446 29.8238C66.93 29.6692 66.9728 29.4902 66.9728 29.2868ZM71.5127 29.2868C71.5127 29.6204 71.4374 29.9153 71.2869 30.1716C71.1405 30.4238 70.9412 30.6211 70.6889 30.7635C70.4408 30.9058 70.1622 30.977 69.853 30.977C69.5438 30.977 69.2631 30.9058 69.0109 30.7635C68.7628 30.6211 68.5635 30.4238 68.4129 30.1716C68.2665 29.9153 68.1933 29.6204 68.1933 29.2868C68.1933 28.9532 68.2665 28.6604 68.4129 28.4081C68.5635 28.1519 68.7628 27.9525 69.0109 27.8102C69.2631 27.6637 69.5438 27.5905 69.853 27.5905C70.1622 27.5905 70.4408 27.6637 70.6889 27.8102C70.9412 27.9525 71.1405 28.1519 71.2869 28.4081C71.4374 28.6604 71.5127 28.9532 71.5127 29.2868ZM70.7805 29.2868C70.7805 29.0793 70.7378 28.9004 70.6523 28.7498C70.571 28.5953 70.4591 28.4753 70.3167 28.3898C70.1784 28.3044 70.0238 28.2617 69.853 28.2617C69.6821 28.2617 69.5255 28.3044 69.3831 28.3898C69.2448 28.4753 69.133 28.5953 69.0475 28.7498C68.9662 28.9004 68.9255 29.0793 68.9255 29.2868C68.9255 29.4902 68.9662 29.6692 69.0475 29.8238C69.133 29.9743 69.2448 30.0923 69.3831 30.1777C69.5255 30.2631 69.6821 30.3058 69.853 30.3058C70.0238 30.3058 70.1784 30.2631 70.3167 30.1777C70.4591 30.0923 70.571 29.9743 70.6523 29.8238C70.7378 29.6692 70.7805 29.4902 70.7805 29.2868ZM74.8262 26.4006C74.9319 26.4006 75.0194 26.4352 75.0885 26.5044C75.1577 26.5735 75.1923 26.663 75.1923 26.7728V30.5438C75.1923 30.6496 75.1577 30.7391 75.0885 30.8123C75.0194 30.8814 74.9319 30.916 74.8262 30.916C74.7204 30.916 74.6329 30.8814 74.5638 30.8123C74.4946 30.7391 74.4601 30.6496 74.4601 30.5438V30.2448L74.5943 30.2997C74.5943 30.3526 74.5658 30.4177 74.5089 30.495C74.4519 30.5682 74.3746 30.6414 74.277 30.7147C74.1794 30.7879 74.0634 30.8509 73.9292 30.9038C73.799 30.9526 73.6566 30.977 73.5021 30.977C73.2214 30.977 72.9671 30.9058 72.7393 30.7635C72.5115 30.617 72.3305 30.4177 72.1963 30.1655C72.0661 29.9092 72.001 29.6163 72.001 29.2868C72.001 28.9532 72.0661 28.6604 72.1963 28.4081C72.3305 28.1519 72.5095 27.9525 72.7332 27.8102C72.957 27.6637 73.2051 27.5905 73.4777 27.5905C73.6526 27.5905 73.8133 27.6169 73.9597 27.6698C74.1061 27.7227 74.2323 27.7898 74.338 27.8712C74.4479 27.9525 74.5312 28.0359 74.5882 28.1214C74.6492 28.2027 74.6797 28.2719 74.6797 28.3288L74.4601 28.4081V26.7728C74.4601 26.6671 74.4946 26.5796 74.5638 26.5105C74.6329 26.4372 74.7204 26.4006 74.8262 26.4006ZM73.5936 30.3058C73.7726 30.3058 73.9292 30.2611 74.0634 30.1716C74.1977 30.0821 74.3014 29.9601 74.3746 29.8055C74.4519 29.6509 74.4906 29.478 74.4906 29.2868C74.4906 29.0916 74.4519 28.9166 74.3746 28.762C74.3014 28.6075 74.1977 28.4854 74.0634 28.3959C73.9292 28.3064 73.7726 28.2617 73.5936 28.2617C73.4187 28.2617 73.2641 28.3064 73.1298 28.3959C72.9956 28.4854 72.8898 28.6075 72.8125 28.762C72.7393 28.9166 72.7027 29.0916 72.7027 29.2868C72.7027 29.478 72.7393 29.6509 72.8125 29.8055C72.8898 29.9601 72.9956 30.0821 73.1298 30.1716C73.2641 30.2611 73.4187 30.3058 73.5936 30.3058Z" fill="black"/>
</svg>
